<mxfile host="app.diagrams.net" modified="2020-12-23T09:40:33.597Z" agent="5.0 (Windows NT 6.1; Win64; x64) AppleWebKit/537.36 (KHTML, like Gecko) Chrome/86.0.4240.198 Safari/537.36 OPR/72.0.3815.400 (Edition Campaign 34)" etag="jClrVcb8Bij0D_B7AuCU" version="14.1.1" type="github">
  <diagram id="xD4Sui8RJs_-P6rXJrE1" name="Page-1">
    <mxGraphModel dx="828" dy="452" grid="1" gridSize="10" guides="1" tooltips="1" connect="1" arrows="1" fold="1" page="1" pageScale="1" pageWidth="827" pageHeight="1169" math="0" shadow="0">
      <root>
        <mxCell id="0" />
        <mxCell id="1" parent="0" />
        <mxCell id="P79QsY082IRTXF0fWY2A-4" value="" style="edgeStyle=orthogonalEdgeStyle;rounded=0;orthogonalLoop=1;jettySize=auto;html=1;" edge="1" parent="1" source="P79QsY082IRTXF0fWY2A-1">
          <mxGeometry relative="1" as="geometry">
            <mxPoint x="414" y="340" as="targetPoint" />
            <Array as="points">
              <mxPoint x="414" y="340" />
              <mxPoint x="414" y="340" />
            </Array>
          </mxGeometry>
        </mxCell>
        <mxCell id="P79QsY082IRTXF0fWY2A-1" value="basla" style="ellipse;whiteSpace=wrap;html=1;" vertex="1" parent="1">
          <mxGeometry x="354" y="200" width="120" height="80" as="geometry" />
        </mxCell>
        <mxCell id="P79QsY082IRTXF0fWY2A-25" style="edgeStyle=orthogonalEdgeStyle;rounded=0;orthogonalLoop=1;jettySize=auto;html=1;entryX=0.5;entryY=0;entryDx=0;entryDy=0;" edge="1" parent="1" source="P79QsY082IRTXF0fWY2A-6" target="P79QsY082IRTXF0fWY2A-11">
          <mxGeometry relative="1" as="geometry" />
        </mxCell>
        <mxCell id="P79QsY082IRTXF0fWY2A-6" value="sayi1,sayi2" style="shape=parallelogram;perimeter=parallelogramPerimeter;whiteSpace=wrap;html=1;fixedSize=1;" vertex="1" parent="1">
          <mxGeometry x="341" y="340" width="146" height="80" as="geometry" />
        </mxCell>
        <mxCell id="P79QsY082IRTXF0fWY2A-26" style="edgeStyle=orthogonalEdgeStyle;rounded=0;orthogonalLoop=1;jettySize=auto;html=1;" edge="1" parent="1" source="P79QsY082IRTXF0fWY2A-11">
          <mxGeometry relative="1" as="geometry">
            <mxPoint x="413.5" y="690" as="targetPoint" />
          </mxGeometry>
        </mxCell>
        <mxCell id="P79QsY082IRTXF0fWY2A-29" value="" style="edgeStyle=orthogonalEdgeStyle;rounded=0;orthogonalLoop=1;jettySize=auto;html=1;" edge="1" parent="1" source="P79QsY082IRTXF0fWY2A-11" target="P79QsY082IRTXF0fWY2A-28">
          <mxGeometry relative="1" as="geometry" />
        </mxCell>
        <mxCell id="P79QsY082IRTXF0fWY2A-11" value="sayi1&amp;gt;sayi2" style="rhombus;whiteSpace=wrap;html=1;rounded=0;" vertex="1" parent="1">
          <mxGeometry x="320" y="480" width="190" height="160" as="geometry" />
        </mxCell>
        <mxCell id="P79QsY082IRTXF0fWY2A-16" value="" style="edgeStyle=orthogonalEdgeStyle;rounded=0;orthogonalLoop=1;jettySize=auto;html=1;" edge="1" parent="1" source="P79QsY082IRTXF0fWY2A-13">
          <mxGeometry relative="1" as="geometry">
            <mxPoint x="415" y="1010" as="targetPoint" />
            <Array as="points">
              <mxPoint x="414" y="890" />
              <mxPoint x="415" y="890" />
            </Array>
          </mxGeometry>
        </mxCell>
        <mxCell id="P79QsY082IRTXF0fWY2A-13" value="sayi2 büyüktür" style="shape=document;whiteSpace=wrap;html=1;boundedLbl=1;rounded=0;" vertex="1" parent="1">
          <mxGeometry x="354" y="690" width="120" height="80" as="geometry" />
        </mxCell>
        <mxCell id="P79QsY082IRTXF0fWY2A-15" value="BİTİR" style="ellipse;whiteSpace=wrap;html=1;rounded=0;" vertex="1" parent="1">
          <mxGeometry x="355" y="1010" width="120" height="80" as="geometry" />
        </mxCell>
        <mxCell id="P79QsY082IRTXF0fWY2A-30" style="edgeStyle=orthogonalEdgeStyle;rounded=0;orthogonalLoop=1;jettySize=auto;html=1;" edge="1" parent="1" source="P79QsY082IRTXF0fWY2A-28">
          <mxGeometry relative="1" as="geometry">
            <mxPoint x="415" y="1000" as="targetPoint" />
            <Array as="points">
              <mxPoint x="680" y="1000" />
              <mxPoint x="457" y="1000" />
            </Array>
          </mxGeometry>
        </mxCell>
        <mxCell id="P79QsY082IRTXF0fWY2A-28" value="sayi1 büyüktür" style="shape=document;whiteSpace=wrap;html=1;boundedLbl=1;rounded=0;" vertex="1" parent="1">
          <mxGeometry x="625" y="520" width="120" height="80" as="geometry" />
        </mxCell>
      </root>
    </mxGraphModel>
  </diagram>
</mxfile>
